# xmcd
#
# Track frame offsets:
#	150
#	12961
#	27078
#	42031
#	55793
#	66843
#	82183
#	101119
#	117077
#	131110
#	154295
#	166862
#	183009
#	208159
#	229450
#	243445
#
# Disc length: 3452 seconds
#
# Revision: 0
# Processed by: cddbd v1.5.2PL0 Copyright (c) Steve Scherf et al.
# Submitted via: EasyCDDAExtractor 2010.6.0.0
#
DISCID=d70d7a10
DTITLE=Various Artist - Wien - Traumstadt der Melodien
DYEAR=2013
DGENRE=Wienerlieder
TTITLE0=Wiener Philharmoniker - Radetzky Marsch
TTITLE1=Paul Hörbiger - Fiakerlied
TTITLE2=Peter Alexander, Herta Talmar - Ich trink den Wein nicht gern allein
TTITLE3=Hans Moser - Die Reblaus
TTITLE4=Gustl-Loibinger-Ensemble - Vindobona
TTITLE5=Hermann Leoplodi - I bin a stiller Zecher
TTITLE6=Wiener Symphoniker - Frühjahrsparade
TTITLE7=Die singende Wirtin Franzl Perlhofer - Die Weana hab'n ihr'n eigenen M
TTITLE7=ond
TTITLE8=Erich Kurz - Mei' Muatterl war a Weanerin
TTITLE9=Ingeborg Hallstein - Dorfschwalben aus Österreich
TTITLE10=Anton Karas - Cafe-Mozart-Walzer
TTITLE11=Peter Minich - Ein Zitherspieler sang ein vergessenes Lied
TTITLE12=Die Wiener Sängerknaben - An der schönen blauen Donau
TTITLE13=Hermann Prey - Wien, du Stadt meiner Träume
TTITLE14=Richard Tauber 1935 - Vienna, City of my dreams
TTITLE15=Richard Tauber 1935 - Whispering of the Vienna Woods
EXTD=
EXTT0=
EXTT1=
EXTT2=
EXTT3=
EXTT4=
EXTT5=
EXTT6=
EXTT7=
EXTT8=
EXTT9=
EXTT10=
EXTT11=
EXTT12=
EXTT13=
EXTT14=
EXTT15=
PLAYORDER=
